:SAMPLES-PER-SECOND 30
:FULLY-SPECIFIED
:DEGREES
240
root  59.6766 31.1401 -43.8482 -178.655 -32.1631 -173.397
RightUpLeg  -30.6144 -7.12527 -3.94416
RightLeg  29.4442 0.644592 0.302801
RightFoot  6.31258 0.00559301 0.276092
RightToes  -48.0667 -0.285914 -0.356011
Spine  5.57709 -0.0639822 1.88046
Spine1  10.7235 0.56158 1.43219
HEad  37.7646 21.5306 -4.91458
LeftShoulder1  0 -2.42657e-020 -4.95415e-022
LeftArm  -11.7238 19.3454 -86.2519
LeftForeArm  43.2748 -45.6431 -10.3867
LeftHand  0.0954916 -9.5988 -1.50832
RightShoulder  0 2.42657e-020 1.07489e-018
RightArm  -3.6885 15.8243 82.5936
RightForeArm  65.5905 61.0157 18.5772
RightHand  -4.92426 27.1281 -19.8452
LeftUpLeg  -8.51611 -17.3789 5.69204
LeftLeg  61.6729 4.23875 6.73248
LeftFoot  -8.30405 -0.0739428 -1.01857
LeftToes  -5.06983 3.33339e-006 -4.73431e-007
241
root  60.0376 30.2188 -45.7267 177.351 -34.6323 -169.923
RightUpLeg  -33.3119 -14.5291 0.803007
RightLeg  42.7936 4.48704 3.61209
RightFoot  1.44169 -0.00155381 0.500804
RightToes  -45.1886 -0.261201 -0.342517
Spine  6.67059 1.00383 2.69128
Spine1  13.1172 3.02832 2.26409
HEad  37.1032 21.6763 -5.7478
LeftShoulder1  0 -2.42657e-020 -4.95415e-022
LeftArm  -13.0141 16.1338 -89.1347
LeftForeArm  42.9059 -43.9248 -9.77251
LeftHand  -0.00593361 -9.67885 -0.300085
RightShoulder  0 2.42657e-020 1.07489e-018
RightArm  0.856701 21.9527 84.2095
RightForeArm  61.9695 42.1094 9.12451
RightHand  -5.16342 26.2144 -21.5544
LeftUpLeg  -12.6733 -20.0251 7.22105
LeftLeg  75.4472 3.86718 11.5489
LeftFoot  -11.0779 -0.20732 -2.13764
LeftToes  8.55751 3.33339e-006 -4.73431e-007
242
root  60.2825 29.5499 -47.4994 174.632 -38.357 -167.177
RightUpLeg  -33.0091 -17.7851 3.4369
RightLeg  49.7831 3.36283 3.44321
RightFoot  -5.77467 -0.0139781 0.100418
RightToes  -44.1293 -0.252281 -0.33724
Spine  7.99439 3.0754 3.33033
Spine1  15.9502 8.08206 1.54638
HEad  38.1014 19.9166 -5.39509
LeftShoulder1  0 -2.42657e-020 -4.95415e-022
LeftArm  -14.2348 11.7087 -92.0966
LeftForeArm  42.9846 -41.7952 -9.05975
LeftHand  -0.123566 -8.96717 1.2067
RightShoulder  0 2.42657e-020 1.07489e-018
RightArm  -0.1914 26.9856 84.4204
RightForeArm  57.5554 29.5773 5.69819
RightHand  -2.72689 26.6431 -11.1123
LeftUpLeg  -18.6954 -22.1705 8.31189
LeftLeg  85.3078 1.53457 10.2648
LeftFoot  -14.7281 -0.287608 -2.22513
LeftToes  10.0836 3.33339e-006 -4.73431e-007
243
root  60.3982 29.2706 -49.0693 172.861 -42.4883 -165.313
RightUpLeg  -31.6736 -18.9055 5.06408
RightLeg  53.2476 1.04264 1.16607
RightFoot  -10.7101 0.00488779 0.429721
RightToes  -42.1086 -0.235543 -0.326721
Spine  9.02245 5.39666 3.48994
Spine1  18.1093 13.6592 0.5066
HEad  40.3304 16.6416 -4.12223
LeftShoulder1  0 -2.42657e-020 -4.95415e-022
LeftArm  -14.6013 8.28083 -94.2248
LeftForeArm  40.1299 -40.7322 -8.72621
LeftHand  -0.106016 -8.2564 1.09975
RightShoulder  0 2.42657e-020 1.07489e-018
RightArm  -10.8423 32.7245 84.5716
RightForeArm  60.2779 18.6625 3.36374
RightHand  0.739151 26.4629 3.5137
LeftUpLeg  -25.4138 -22.5708 8.27687
LeftLeg  90.7008 0.510768 9.58421
LeftFoot  -16.9925 -0.324173 -2.16982
LeftToes  9.85912 3.33339e-006 -4.73431e-007
244
root  60.3774 29.4133 -50.4812 171.976 -47.3912 -164.597
RightUpLeg  -28.9521 -20.7577 5.69672
RightLeg  53.273 -1.0099 -1.24311
RightFoot  -13.8979 0.0872972 1.09385
RightToes  -39.6279 -0.215517 -0.313011
Spine  9.61161 7.47609 2.90741
Spine1  18.9436 18.4184 -0.68664
HEad  41.5838 10.6976 -1.71631
LeftShoulder1  0 -2.42657e-020 -4.95415e-022
LeftArm  -11.9632 5.98156 -94.3513
LeftForeArm  36.5968 -40.5047 -8.65946
LeftHand  -0.0861552 -7.70135 0.910824
RightShoulder  0 2.42657e-020 1.07489e-018
RightArm  -36.5081 38.4736 82.1098
RightForeArm  82.0074 3.59653 0.539888
RightHand  2.81501 20.9073 15.5457
LeftUpLeg  -31.6114 -22.007 6.84408
LeftLeg  91.038 0.453738 9.58493
LeftFoot  -18.8667 -0.394226 -2.37244
LeftToes  10.8634 3.33339e-006 -4.73431e-007
245
root  60.2345 30.0011 -51.8574 171.345 -54.3039 -163.747
RightUpLeg  -24.8043 -23.8717 6.24303
RightLeg  49.495 -3.93876 -4.08522
RightFoot  -15.1205 0.224017 2.06538
RightToes  -37.5559 -0.199259 -0.300904
Spine  9.56502 8.31693 1.98796
Spine1  18.144 20.2761 -1.81016
HEad  42.1252 4.03315 1.45659
LeftShoulder1  0 -2.42657e-020 -4.95415e-022
LeftArm  -9.61381 4.81029 -93.1227
LeftForeArm  36.8592 -41.0097 -8.817
LeftHand  -0.114794 -7.89461 1.29469
RightShoulder  0 2.42657e-020 1.07489e-018
RightArm  -40.9972 34.0661 77.4469
RightForeArm  72.7668 2.27372 0.33394
RightHand  2.07406 14.63 16.4301
LeftUpLeg  -36.7587 -22.0406 5.1475
LeftLeg  86.0908 1.11356 8.24561
LeftFoot  -19.0832 -0.342299 -2.03621
LeftToes  9.8237 3.33339e-006 -4.73431e-007
246
root  59.9378 30.8772 -53.2762 170.59 -62.4863 -162.521
RightUpLeg  -19.7417 -26.5712 6.85727
RightLeg  43.1927 -8.50489 -6.97736
RightFoot  -13.7891 0.326837 3.0802
RightToes  -36.5659 -0.191648 -0.294913
Spine  9.361 8.01288 1.00527
Spine1  16.9759 19.6452 -3.13167
HEad  42.6888 -2.89108 5.76441
LeftShoulder1  0 -2.42657e-020 -4.95415e-022
LeftArm  -9.18156 4.32761 -91.402
LeftForeArm  35.9863 -42.7428 -9.3792
LeftHand  -0.142895 -8.16617 1.63299
RightShoulder  0 2.42657e-020 1.07489e-018
RightArm  -52.1785 28.9304 75.8644
RightForeArm  70.5612 2.04461 0.299614
RightHand  1.08128 16.8693 7.65519
LeftUpLeg  -39.1775 -21.4544 2.69846
LeftLeg  75.9964 1.7518 5.45475
LeftFoot  -17.6885 -0.182062 -1.17004
LeftToes  7.44059 3.33339e-006 -4.73431e-007
247
root  59.4632 31.8106 -54.6694 168.397 -71.3497 -159.76
RightUpLeg  -15.1262 -27.9961 7.2394
RightLeg  37.5988 -12.984 -8.60123
RightFoot  -8.99288 0.191306 2.81012
RightToes  -40.5811 -0.223142 -0.318381
Spine  9.14346 6.84015 0.0705111
Spine1  16.0673 17.0494 -4.33595
HEad  41.7957 -8.87089 10.0443
LeftShoulder1  0 -2.42657e-020 -4.95415e-022
LeftArm  -8.88688 4.63034 -88.9788
LeftForeArm  32.9445 -46.226 -10.6158
LeftHand  -0.180158 -7.24347 2.47813
RightShoulder  0 2.42657e-020 1.07489e-018
RightArm  -54.635 22.9985 77.2917
RightForeArm  67.7171 6.50366 1.09277
RightHand  0.290517 22.4453 1.83462
LeftUpLeg  -38.2904 -18.8806 -1.2669
LeftLeg  62.1569 1.60357 2.60068
LeftFoot  -14.4277 -0.0399145 -0.315351
LeftToes  1.43331 3.33339e-006 -4.73431e-007
248
root  58.8123 32.6301 -55.9765 156.781 -79.368 -147.74
RightUpLeg  -11.8335 -29.9129 7.3449
RightLeg  35.1996 -11.9444 -7.24156
RightFoot  -1.47319 0.00352709 0.652196
RightToes  -50.1117 -0.303869 -0.364837
Spine  8.81015 5.2795 -0.319749
Spine1  15.5698 13.361 -4.21867
HEad  40.9011 -12.842 12.9674
LeftShoulder1  0 -2.42657e-020 -4.95415e-022
LeftArm  -9.24486 5.60979 -87.353
LeftForeArm  31.5016 -49.5725 -11.9663
LeftHand  -0.227262 -6.93593 3.38219
RightShoulder  0 2.42657e-020 1.07489e-018
RightArm  -42.689 15.6257 78.6488
RightForeArm  49.3752 14.6404 2.61321
RightHand  -0.071518 23.1244 0.0204381
LeftUpLeg  -34.6011 -12.6196 -6.21965
LeftLeg  47.3335 0.65282 0.615944
LeftFoot  -10.4072 0.0164174 0.180262
LeftToes  -4.74136 3.33339e-006 -4.73431e-007
249
root  58.0663 33.1928 -57.1233 115.179 -84.1346 -105.257
RightUpLeg  -10.2557 -27.5494 6.98799
RightLeg  36.1731 -4.49947 -2.87539
RightFoot  5.2941 0.0305236 -0.282625
RightToes  -56.2038 -0.359065 -0.387259
Spine  7.88848 3.70607 -0.451691
Spine1  14.2543 9.42014 -3.33345
HEad  40.3142 -15.4825 14.9091
LeftShoulder1  0 -2.42657e-020 -4.95415e-022
LeftArm  -9.54138 7.76586 -86.4092
LeftForeArm  32.5307 -52.9832 -13.5564
LeftHand  -0.275756 -7.53024 3.82197
RightShoulder  0 2.42657e-020 1.07489e-018
RightArm  -35.4497 7.64053 79.1613
RightForeArm  33.5172 23.1288 4.30996
RightHand  -0.631163 21.943 -2.88568
LeftUpLeg  -30.8961 -0.590348 -12.4683
LeftLeg  34.5063 -0.2781 -0.170343
LeftFoot  -1.28953 0.00382272 0.339673
LeftToes  -11.4479 3.33339e-006 -4.73431e-007
250
root  57.3014 33.3884 -58.2148 64.1851 -82.2873 -53.1296
RightUpLeg  -9.77023 -21.5194 6.82703
RightLeg  38.9737 5.60009 3.93144
RightFoot  9.72571 -0.07491 1.25794
RightToes  -59.2586 -0.387561 -0.396263
Spine  6.77342 2.08761 -0.288906
Spine1  12.6487 5.2738 -1.80509
HEad  39.0892 -16.1589 14.8915
LeftShoulder1  0 -2.42657e-020 -4.95415e-022
LeftArm  -9.1717 10.7582 -85.6052
LeftForeArm  33.344 -57.6742 -16.2347
LeftHand  -0.33295 -7.35562 4.81089
RightShoulder  0 2.42657e-020 1.07489e-018
RightArm  -31.1854 1.51984 79.3213
RightForeArm  23.2335 31.4307 6.18415
RightHand  -0.614314 21.8416 -2.81386
LeftUpLeg  -29.2772 15.7447 -19.4536
LeftLeg  26.2257 -0.675863 -0.283733
LeftFoot  6.28692 -0.00958415 0.174506
LeftToes  -13.2624 3.33339e-006 -4.73431e-007
251
root  56.4068 33.0833 -59.2432 42.61 -77.476 -31.4928
RightUpLeg  -8.63453 -17.8412 5.52412
RightLeg  44.4397 11.8056 9.97614
RightFoot  11.4051 -0.273838 3.11912
RightToes  -58.9889 -0.385026 -0.395529
Spine  6.15945 0.592623 0.0322894
Spine1  11.6982 1.60665 -0.414151
HEad  37.1832 -16.0596 14.3721
LeftShoulder1  0 -2.42657e-020 -4.95415e-022
LeftArm  -7.0018 13.5425 -84.4665
LeftForeArm  35.4643 -63.3396 -20.6593
LeftHand  -0.398307 -6.53947 6.60046
RightShoulder  0 2.42657e-020 1.07489e-018
RightArm  -26.0145 -5.80982 78.3719
RightForeArm  18.4865 47.1252 10.9676
RightHand  -0.764072 20.236 -3.91097
LeftUpLeg  -27.8264 26.5188 -23.6042
LeftLeg  22.7387 -1.17236 -0.40766
LeftFoot  0.458589 -0.000399967 0.0999345
LeftToes  19.3712 3.33339e-006 -4.73431e-007
252
root  55.5132 32.3056 -60.3428 32.4237 -70.6188 -21.709
RightUpLeg  -7.00861 -15.3255 4.79786
RightLeg  49.8072 9.45088 9.65223
RightFoot  7.33752 -0.0885907 1.75896
RightToes  -58.9101 -0.384287 -0.395313
Spine  6.06422 -0.62432 0.825153
Spine1  11.4912 -0.897846 1.0004
HEad  34.5898 -15.7202 13.7455
LeftShoulder1  0 -2.42657e-020 -4.95415e-022
LeftArm  -1.58785 14.6851 -83.0464
LeftForeArm  41.0761 -69.8544 -28.9245
LeftHand  -0.374707 -5.91342 6.88317
RightShoulder  0 2.42657e-020 1.07489e-018
RightArm  -19.5941 -14.2598 74.4083
RightForeArm  29.4054 67.1965 24.9534
RightHand  -1.01786 21.1564 -5.07786
LeftUpLeg  -25.8654 19.6368 -19.8115
LeftLeg  25.9067 1.25165 0.508233
LeftFoot  -9.10121 -0.0116429 -0.146294
LeftToes  27.2631 3.33339e-006 -4.73431e-007
253
root  54.6775 31.4841 -61.447 25.9583 -65.499 -16.8495
RightUpLeg  -4.75364 -11.1616 3.29469
RightLeg  54.7828 4.6161 5.63467
RightFoot  4.99959 -0.0124523 0.662684
RightToes  -52.4586 -0.324847 -0.374169
Spine  6.69819 -1.2981 0.978728
Spine1  12.6191 -2.22511 1.15609
HEad  30.8996 -14.3273 14.4312
LeftShoulder1  0 -2.42657e-020 -4.95415e-022
LeftArm  5.25212 13.6622 -80.1432
LeftForeArm  53.6269 -75.7802 -44.5453
LeftHand  -0.2666 -5.15313 5.55672
RightShoulder  0 2.42657e-020 1.07489e-018
RightArm  -9.64768 -17.9771 68.8322
RightForeArm  81.6302 79.4882 73.8387
RightHand  -1.57572 22.6907 -7.47362
LeftUpLeg  -25.5848 9.22165 -15.7505
LeftLeg  33.5584 4.97314 2.84681
LeftFoot  -17.1264 -0.249156 -1.65455
LeftToes  25.6954 3.33339e-006 -4.73431e-007
